<svg width="802" height="115" viewBox="0 0 802 115" fill="none" xmlns="http://www.w3.org/2000/svg">
<path d="M752.917 114.235C747.382 114.235 742.292 113.964 737.646 113.42C733.001 112.926 729.171 112.209 726.156 111.27L729.047 101.856C733.94 102.844 738.585 103.61 742.984 104.154C747.432 104.697 751.286 104.969 754.548 104.969C763.641 104.969 770.684 103.684 775.675 101.114C780.667 98.495 783.163 94.8379 783.163 90.143C783.163 87.7214 782.248 85.5963 780.42 83.7677C778.641 81.8897 776.12 80.506 772.858 79.6164L750.916 73.2412C746.468 71.9562 743.008 69.9547 740.537 67.2366C738.116 64.469 736.905 61.2567 736.905 57.5996C736.905 49.6923 740.611 43.5642 748.025 39.2152C755.487 34.8662 765.989 32.6917 779.53 32.6917C782.891 32.6917 786.424 32.8399 790.131 33.1364C793.887 33.433 797.519 33.853 801.028 34.3967L798.433 43.2182C794.332 42.8229 790.477 42.5263 786.869 42.3286C783.261 42.0815 780.197 41.958 777.677 41.958C767.892 41.958 760.33 43.2429 754.993 45.8128C749.655 48.3332 746.987 51.9409 746.987 56.6359C746.987 58.6621 747.728 60.4165 749.211 61.8992C750.693 63.3324 752.794 64.4196 755.512 65.1609L777.306 71.2396C782.397 72.6234 786.301 74.9215 789.019 78.1338C791.786 81.2967 793.17 85.1021 793.17 89.5499C793.17 97.4078 789.661 103.487 782.644 107.786C775.626 112.086 765.717 114.235 752.917 114.235Z" fill="#C3C0B6"/>
<path d="M655.361 114.235C652.396 114.235 649.431 114.087 646.465 113.791C643.5 113.544 640.51 113.173 637.496 112.679L643.871 103.116C646.54 104.351 650.913 104.969 656.992 104.969C663.565 104.969 669.644 103.832 675.228 101.559C680.862 99.2363 685.755 95.9993 689.906 91.848C694.107 87.6472 697.369 82.7546 699.691 77.1701C702.014 71.5856 703.175 65.4821 703.175 58.8598C703.175 53.473 701.792 49.3216 699.024 46.4058C696.257 43.4406 692.377 41.958 687.386 41.958C682.691 41.958 677.971 43.5394 673.227 46.7024C668.482 49.8158 664.207 54.7332 660.402 61.4544C656.646 68.1261 653.854 76.7994 652.025 87.4743L654.916 55.5239H661.143L657.289 61.1579C659.414 52.1139 663.441 45.1209 669.372 40.1789C675.302 35.1874 682.468 32.6917 690.87 32.6917C697.937 32.6917 703.423 34.8414 707.327 39.141C711.231 43.4406 713.183 49.5193 713.183 57.3772C713.183 65.4821 711.725 72.9941 708.809 79.9129C705.943 86.7824 701.891 92.787 696.652 97.9267C691.413 103.066 685.285 107.069 678.268 109.936C671.25 112.802 663.614 114.235 655.361 114.235ZM647.133 0C654.299 0 659.167 1.82856 661.736 5.48567C664.356 9.09337 664.973 14.7026 663.59 22.3133L647.577 112.753L637.496 112.679L653.434 22.3133C654.225 17.8161 654.076 14.5049 652.989 12.3798C651.951 10.2548 649.703 9.19221 646.243 9.19221C644.958 9.19221 643.649 9.26634 642.314 9.4146C641.029 9.51344 639.744 9.71113 638.459 10.0076L637.347 1.18609C638.978 0.741307 640.609 0.444784 642.24 0.296523C643.871 0.098841 645.502 0 647.133 0Z" fill="#C3C0B6"/>
<path d="M569.073 114.31C562.055 114.31 556.619 112.382 552.764 108.527C548.909 104.673 546.982 99.2364 546.982 92.2187C546.982 83.323 548.786 75.2674 552.393 68.052C556.051 60.7872 561.166 54.585 567.739 49.4452C574.311 44.3055 582.021 40.3519 590.867 37.5843C599.714 34.8168 609.326 33.433 619.704 33.433H621.113L610.734 92.1445C610.042 96.197 610.413 99.2858 611.846 101.411C613.329 103.536 615.973 104.598 619.778 104.598H624.226L622.744 113.494H618.666C615.059 113.494 612.069 113.074 609.697 112.234C607.324 111.394 605.496 110.109 604.211 108.379C602.926 106.6 602.16 104.327 601.913 101.559C601.666 98.7916 601.839 95.4804 602.432 91.6256L607.324 92.5152H599.689L603.395 86.2141C600.48 95.1592 596.032 102.078 590.052 106.971C584.072 111.863 577.079 114.31 569.073 114.31ZM571.371 105.043C579.575 105.043 586.741 101.584 592.869 94.665C598.997 87.7461 603.173 77.9608 605.397 65.3092L609.919 39.8082L615.998 42.6993C607.3 42.9958 599.318 44.429 592.053 46.9989C584.838 49.5194 578.611 52.9541 573.372 57.3031C568.183 61.6027 564.156 66.6436 561.289 72.4258C558.472 78.2079 557.064 84.5091 557.064 91.3291C557.064 95.6781 558.324 99.0634 560.844 101.485C563.365 103.857 566.874 105.043 571.371 105.043Z" fill="#C3C0B6"/>
<path d="M506.951 114.236C499.044 114.236 493.163 112.382 489.308 108.676C485.503 104.969 483.6 99.3353 483.6 91.7739C483.6 89.6983 483.773 87.0049 484.119 83.6937C484.515 80.3825 485.429 76.0335 486.862 70.6467L497.908 28.4663C499.637 21.8934 499.39 17.0502 497.166 13.9367C494.992 10.8232 490.494 9.26643 483.674 9.26643C481.895 9.26643 480.091 9.38998 478.263 9.63708C476.434 9.83477 474.606 10.2054 472.777 10.749L470.998 2.00162C473.469 1.30973 475.965 0.815526 478.485 0.519003C481.006 0.22248 483.526 0.0742188 486.047 0.0742188C495.486 0.0742188 502.084 2.56995 505.839 7.56142C509.645 12.5529 510.263 19.9413 507.693 29.7265L496.944 70.6467C495.412 76.33 494.473 80.8026 494.127 84.0643C493.781 87.3261 493.608 89.723 493.608 91.255C493.509 100.398 498.426 104.969 508.36 104.969C511.029 104.969 513.623 104.549 516.144 103.709C518.714 102.819 521.53 101.46 524.595 99.6318L528.079 107.786C524.817 109.812 521.432 111.394 517.923 112.531C514.463 113.667 510.806 114.236 506.951 114.236Z" fill="#C3C0B6"/>
<path d="M423.865 114.726C402.003 114.726 386.669 96.8117 386.669 74.9497C386.669 53.3913 404.28 35.3247 427.357 35.3247C450.889 35.3247 468.196 52.3285 468.196 74.9497V112.753H447.701V103.947C442.387 110.627 434.189 114.726 423.865 114.726ZM427.357 94.5344C438.44 94.5344 446.638 85.7289 446.638 75.1015C446.638 64.4741 438.44 55.6686 427.357 55.6686C416.274 55.6686 408.228 64.4741 408.228 75.1015C408.228 85.7289 416.274 94.5344 427.357 94.5344Z" fill="#C3C0B6"/>
<path d="M354.201 112.753H332.643V69.6362C332.643 50.3551 343.574 35.6285 365.891 35.6285C370.749 35.6285 376.063 36.5395 379.859 38.2095V59.1606C376.215 57.0351 371.812 55.9724 367.865 55.9724C359.363 55.9724 354.201 61.4379 354.201 70.3953V112.753Z" fill="#C3C0B6"/>
<path d="M277.465 114.726C254.388 114.726 236.777 96.8117 236.777 74.9497C236.777 53.2394 254.54 35.3247 277.465 35.3247C300.693 35.3247 318.304 53.3913 318.304 74.9497C318.304 96.8117 300.541 114.726 277.465 114.726ZM277.465 94.5344C288.547 94.5344 296.746 85.7289 296.746 75.1015C296.746 64.4741 288.547 55.6686 277.465 55.6686C266.382 55.6686 258.335 64.4741 258.335 75.1015C258.335 85.7289 266.382 94.5344 277.465 94.5344Z" fill="#C3C0B6"/>
<path d="M178.196 114.726C156.334 114.726 141 96.8117 141 74.9497C141 53.3913 158.611 35.3247 181.688 35.3247C205.22 35.3247 222.527 52.3285 222.527 74.9497V112.753H202.032V103.947C196.718 110.627 188.52 114.726 178.196 114.726ZM181.688 94.5344C192.771 94.5344 200.969 85.7289 200.969 75.1015C200.969 64.4741 192.771 55.6686 181.688 55.6686C170.605 55.6686 162.558 64.4741 162.558 75.1015C162.558 85.7289 170.605 94.5344 181.688 94.5344Z" fill="#C3C0B6"/>
<path d="M83.2632 0C99.6864 0 113 13.3136 113 29.7368V113H84.0066V85.3457C77.6747 101.534 61.9217 113 43.4901 113C19.4712 113 0 93.5288 0 69.5099C0 51.0784 11.4659 35.3254 27.654 28.9934H0V0H83.2632ZM28.9934 69.1382C28.9934 77.3498 35.6502 84.0066 43.8618 84.0066H84.0066V57.9868H55.0132V28.9934H28.9934V69.1382Z" fill="#D97757"/>
</svg>
