<svg width="512" height="145" viewBox="0 0 512 145" fill="none" xmlns="http://www.w3.org/2000/svg">
<path d="M66.6784 46.5413C67.8291 44.8452 69.0888 44.6295 70.1107 44.6295C71.1326 44.6295 72.835 44.8452 73.9862 46.5413C83.0567 59.0001 98.029 83.8184 109.074 102.126C116.276 114.065 121.808 123.234 122.943 124.401C127.203 128.782 133.047 126.052 136.442 121.083C139.785 116.191 140.712 112.756 140.712 109.091C140.712 106.595 92.2849 16.529 87.4078 9.0321C82.7176 1.82134 81.1899 0 73.1625 0H67.1553C59.1517 0 57.9952 1.82134 53.3045 9.0321C48.4278 16.529 0 106.595 0 109.091C0 112.756 0.927978 116.191 4.27073 121.083C7.66609 126.052 13.5092 128.782 17.7696 124.401C18.9047 123.234 24.4367 114.065 31.6392 102.126C42.6835 83.8184 57.6078 59.0001 66.6784 46.5413Z" fill="black"/>
<path d="M387.842 39.3947C407.788 39.3947 423.649 57.4017 423.649 79.6736C423.649 101.946 407.788 120.111 387.842 120.111C377.163 120.111 368.839 115.688 363.499 107.632V144.12H341.355V40.9743H363.499V51.8733C368.839 43.8175 377.163 39.3947 387.842 39.3947ZM471.953 39.3947C494.566 39.3947 512 56.7698 512 79.8317C512 102.893 494.566 120.111 471.953 120.111C449.179 120.111 431.904 102.893 431.904 79.8317C431.904 56.7698 449.179 39.3947 471.953 39.3947ZM241.752 7.96127V30.3911H197.621V50.2938H236.884V72.7234H197.621V96.1011H241.752V118.531H174.378V7.96127H241.752ZM277.785 40.9743L290.506 59.2973L303.384 40.9743H329.769L303.698 78.4099L331.653 118.531H304.954L290.349 97.5229L275.743 118.531H249.359L277.156 78.568L251.086 40.9743H277.785ZM382.817 60.5611C371.98 60.5611 363.499 68.9326 363.499 79.6736C363.499 90.5727 371.98 98.7867 382.817 98.7867C393.496 98.7867 402.134 90.4146 402.134 79.6736C402.134 69.0907 393.496 60.5611 382.817 60.5611ZM471.953 60.7187C461.427 60.7187 453.577 68.7745 453.577 79.8317C453.577 90.5727 461.427 98.7867 471.953 98.7867C482.316 98.7867 490.328 90.5727 490.328 79.8317C490.328 68.7745 482.316 60.7187 471.953 60.7187Z" fill="black"/>
</svg>
