<svg width="512" height="136" viewBox="0 0 512 136" fill="none" xmlns="http://www.w3.org/2000/svg">
<path d="M487.53 110.731C482.527 110.731 478.003 109.566 473.959 107.235C469.984 104.905 466.865 101.683 464.603 97.5707C462.341 93.3897 461.211 88.7294 461.211 83.5885C461.211 78.6536 462.273 74.1295 464.398 70.017C466.522 65.967 469.451 62.7528 473.184 60.3748L473.548 60.1473C477.455 57.6799 481.91 56.4461 486.913 56.4461C492.054 56.4461 496.509 57.577 500.279 59.8389C504.117 62.1008 507.031 65.2537 509.018 69.2977C511.006 73.2733 512 77.8651 512 83.0746C512 83.6915 511.965 84.3085 511.897 84.9254L511.804 85.812C511.797 85.8851 511.794 85.9321 511.794 85.9532H472.52C472.863 90.6142 474.542 94.2128 477.558 96.7484C480.574 99.2846 484 100.552 487.839 100.552C493.734 100.552 498.257 97.8107 501.41 92.3274L511.075 96.9545C508.812 101.135 505.66 104.493 501.616 107.03C497.64 109.497 492.945 110.731 487.53 110.731ZM500.485 77.3173C500.348 75.6719 499.799 73.9926 498.84 72.2794C497.88 70.5655 496.372 69.1262 494.316 67.9611C492.328 66.7274 489.827 66.1105 486.811 66.1105C483.452 66.1105 480.539 67.1386 478.071 69.1947C475.673 71.2509 474.028 73.9587 473.137 77.3173H500.485ZM436.39 110.731C430.563 110.731 425.731 109.394 421.893 106.721C418.123 103.98 415.45 100.552 413.874 96.4399L423.949 92.122C425.114 94.9321 426.794 97.0568 428.987 98.4962C431.249 99.9355 433.716 100.655 436.39 100.655C439.2 100.655 441.496 100.142 443.278 99.1131C445.06 98.0168 445.951 96.6114 445.951 94.8982C445.951 93.3214 445.29 92.0284 443.968 91.0182L443.792 90.8881C442.352 89.7918 439.987 88.8318 436.698 88.0094L429.706 86.3647C425.868 85.4732 422.544 83.8285 419.734 81.4298C416.992 78.9621 415.622 75.775 415.622 71.8679C415.622 67.2392 417.493 63.5625 421.235 60.8378L421.482 60.6614C425.388 57.8512 430.186 56.4461 435.875 56.4461C440.604 56.4461 444.785 57.44 448.419 59.4277C452.12 61.4154 454.793 64.2941 456.438 68.0639L446.465 72.2794C445.505 70.1547 444.031 68.5777 442.044 67.5499C440.056 66.5217 437.897 66.0076 435.567 66.0076C433.418 66.0076 431.516 66.4716 429.863 67.3995L429.604 67.5499C427.89 68.5092 427.034 69.8116 427.034 71.457C427.034 72.8963 427.616 74.0611 428.781 74.9526C429.961 75.8047 431.768 76.5315 434.203 77.133L442.147 79.0651C447.287 80.3668 451.126 82.3546 453.662 85.0278C456.197 87.6325 457.466 90.7857 457.466 94.4867C457.466 97.3946 456.606 100.048 454.885 102.446L454.69 102.712C452.908 105.179 450.406 107.133 447.185 108.572C444.031 110.011 440.434 110.731 436.39 110.731ZM382.285 110.731C378.652 110.731 375.362 110.011 372.415 108.572C369.537 107.064 367.24 105.008 365.526 102.403C363.882 99.73 363.059 96.7145 363.059 93.3559C363.059 88.0094 365.047 83.7939 369.022 80.7098C373.066 77.6251 378.172 76.0834 384.341 76.0834C389.756 76.0834 394.383 77.0088 398.221 78.859V76.7004C398.221 73.7091 397.061 71.2343 394.74 69.2745L394.519 69.0923C392.121 67.0358 389.208 66.0076 385.781 66.0076C380.572 66.0076 376.391 68.1324 373.238 72.3817L364.602 66.4189C367 63.1975 369.982 60.73 373.546 59.0164C377.179 57.3029 381.257 56.4461 385.781 56.4461C393.108 56.4461 398.787 58.2592 402.818 61.8854L403.053 62.1008C407.165 65.802 409.222 71.0455 409.222 77.8312V109.086H398.221V102.815H397.604C395.959 105.145 393.869 107.064 391.332 108.572C388.797 110.011 385.781 110.731 382.285 110.731ZM384.136 101.375C386.672 101.375 389.002 100.759 391.127 99.5246C393.32 98.2223 395.034 96.5429 396.267 94.4867C397.57 92.362 398.221 90.1003 398.221 87.701C394.589 85.7132 390.715 84.7193 386.603 84.7193C382.833 84.7193 379.886 85.5417 377.762 87.1871C375.637 88.8318 374.575 90.9227 374.575 93.4582C374.575 95.7891 375.499 97.7084 377.35 99.2162C379.269 100.655 381.531 101.375 384.136 101.375ZM334.835 110.731C331.133 110.731 327.809 109.943 324.862 108.366C321.983 106.79 319.824 104.802 318.385 102.403H317.768V109.086H307.075V35.4722H318.385V57.5768L317.768 64.6709H318.385C319.824 62.3405 321.983 60.3871 324.862 58.8106C327.809 57.2341 331.133 56.4459 334.835 56.4459C339.221 56.4459 343.265 57.6111 346.966 59.9416C350.615 62.1967 353.525 65.3186 355.697 69.3068L355.911 69.7085C358.173 73.8211 359.304 78.4475 359.304 83.5885C359.304 88.5681 358.242 93.0662 356.12 97.0807L355.911 97.4677C353.718 101.58 350.736 104.836 346.966 107.235C343.265 109.566 339.221 110.731 334.835 110.731ZM332.881 100.347C335.554 100.347 338.022 99.6616 340.284 98.2907C342.614 96.9199 344.465 94.966 345.835 92.4304C347.275 89.8257 347.995 86.8786 347.995 83.5885C347.995 80.2983 347.275 77.3851 345.835 74.8495C344.465 72.2448 342.614 70.257 340.284 68.8862C338.022 67.5153 335.554 66.83 332.881 66.83C330.208 66.83 327.706 67.5153 325.376 68.8862C323.114 70.257 321.263 72.2102 319.824 74.7465C318.453 77.2827 317.768 80.2298 317.768 83.5885C317.768 86.9471 318.453 89.8942 319.824 92.4304C321.263 94.966 323.114 96.9199 325.376 98.2907C327.706 99.6616 330.208 100.347 332.881 100.347ZM275.253 56.4461C280.393 56.4461 284.849 57.577 288.618 59.8389C292.457 62.1008 295.37 65.2537 297.357 69.2977C299.345 73.2733 300.339 77.8651 300.339 83.0746C300.339 83.6915 300.305 84.3085 300.237 84.9254L300.155 85.683C300.141 85.8315 300.134 85.9216 300.134 85.9532H260.859C261.202 90.6142 262.881 94.2128 265.897 96.7484C268.913 99.2846 272.34 100.552 276.179 100.552C282.073 100.552 286.597 97.8107 289.749 92.3274L299.414 96.9545C297.152 101.135 293.999 104.493 289.955 107.03C285.98 109.497 281.285 110.731 275.87 110.731C270.866 110.731 266.343 109.566 262.299 107.235C258.323 104.905 255.204 101.683 252.943 97.5707C250.681 93.3897 249.55 88.7294 249.55 83.5885C249.55 78.6536 250.613 74.1295 252.737 70.017C254.931 65.8363 257.981 62.5463 261.887 60.1473C265.794 57.6799 270.25 56.4461 275.253 56.4461ZM244.277 56.549C246.744 56.549 248.767 56.8917 250.343 57.5771V69.4008C248.012 68.2353 245.408 67.6527 242.529 67.6527C238.828 67.6527 235.709 69.0923 233.173 71.9709C230.706 74.7811 229.472 78.242 229.472 82.3546V109.086H218.163V58.0911H228.855V65.6992H229.472C230.53 63.1877 232.416 61.0904 235.13 59.4073L235.435 59.222C238.314 57.44 241.261 56.549 244.277 56.549ZM275.15 66.1105C271.791 66.1105 268.879 67.1386 266.411 69.1947C264.012 71.2509 262.367 73.9587 261.476 77.3173H288.825C288.687 75.6719 288.139 73.9926 287.179 72.2794C286.22 70.5655 284.712 69.1262 282.656 67.9611C280.668 66.7274 278.166 66.1105 275.15 66.1105ZM202.023 49.4547C199.898 49.4547 198.082 48.7351 196.573 47.2957C195.134 45.7878 194.414 43.9714 194.414 41.8466C194.414 39.7218 195.134 37.9397 196.573 36.5004C198.082 34.9925 199.898 34.2386 202.023 34.2386C204.147 34.2386 205.929 34.9925 207.369 36.5004C208.877 37.9397 209.631 39.7218 209.631 41.8466C209.631 43.9714 208.877 45.7878 207.369 47.2957C205.929 48.7351 204.147 49.4547 202.023 49.4547ZM196.368 58.091H207.677V109.086H196.368V58.091ZM144.854 35.4722H189.577V46.4731H156.368V67.6524H186.287V78.5505H156.368V109.086H144.854V35.4722Z" fill="black"/>
<path d="M33.6995 131.256C39.3541 133.531 45.4887 134.882 51.93 135.107C60.6474 135.411 68.937 133.609 76.348 130.185C67.461 126.694 59.4126 121.588 52.5436 115.239C48.091 122.369 41.5054 128 33.6995 131.256Z" fill="black"/>
<path d="M52.5424 115.242C36.8625 100.74 27.3504 79.7505 28.1543 56.729C28.1804 55.9814 28.2198 55.2343 28.266 54.4874C25.4578 53.7611 22.526 53.3179 19.5089 53.2126C15.1903 53.0617 11.0081 53.5973 7.05968 54.7092C2.87399 62.0413 0.348075 70.4541 0.0334045 79.4649C-0.778689 102.721 13.2946 123.041 33.6983 131.258C41.5042 128.002 48.0896 122.377 52.5424 115.242Z" fill="#080606"/>
<path d="M52.543 115.241C56.1885 109.407 58.3988 102.567 58.6561 95.1984C59.333 75.8144 46.302 59.1397 28.2666 54.4866C28.2205 55.2335 28.181 55.9807 28.1549 56.7282C27.3509 79.7498 36.863 100.739 52.543 115.241Z" fill="#0E0E0E"/>
<path d="M56.6392 0C46.3674 8.22901 38.2562 19.0797 33.3488 31.5793C30.5392 38.739 28.7737 46.4297 28.2582 54.4914C46.2936 59.1445 59.3247 75.8192 58.6478 95.2032C58.3904 102.572 56.1736 109.405 52.5346 115.246C59.4034 121.601 67.452 126.7 76.339 130.191C94.1765 121.946 106.832 104.204 107.565 83.2177C108.04 69.6207 102.816 57.5027 95.4339 47.2738C87.6384 36.4558 56.6392 0 56.6392 0Z" fill="black"/>
</svg>
